<svg version="1.1" id="Layer_1" xmlns="http://www.w3.org/2000/svg" xmlns:xlink="http://www.w3.org/1999/xlink" x="0px" y="0px"
	 width="256" viewBox="0 0 256 256" enable-background="new 0 0 256 256" xml:space="preserve">
<path fill="none" opacity="1.000000" stroke="none" 
	d="
M257.000000,124.000000 
	C257.000000,168.666672 257.000000,212.833328 257.000000,257.000000 
	C171.666672,257.000000 86.333336,257.000000 1.000000,257.000000 
	C1.000000,171.666672 1.000000,86.333336 1.000000,1.000000 
	C86.333336,1.000000 171.666672,1.000000 257.000000,1.000000 
	C257.000000,41.833332 257.000000,82.666664 257.000000,124.000000 
M228.930222,55.271950 
	C227.923431,53.783276 227.133926,52.071583 225.873383,50.843330 
	C219.338943,44.476349 212.684219,38.232815 205.718170,31.370420 
	C196.851517,23.831347 186.898560,18.163443 175.357254,13.777177 
	C161.817627,8.065063 147.797195,4.702822 132.069733,5.048209 
	C61.478756,1.568148 0.565880,63.340519 5.045697,134.914810 
	C5.371676,139.338074 5.100807,143.908386 6.146977,148.154190 
	C8.375194,157.197235 11.287204,166.071777 13.996331,175.763809 
	C16.103823,180.392792 17.696228,185.355682 20.432604,189.577011 
	C25.225441,196.970825 30.720228,203.909622 36.276157,211.608826 
	C40.316078,215.702011 43.925945,220.376175 48.493233,223.756897 
	C55.991936,229.307465 64.111816,234.018829 72.429871,239.586197 
	C86.990799,247.410599 102.528870,251.803192 119.950768,252.933060 
	C133.088989,253.418472 146.161194,253.066422 159.718216,249.640808 
	C187.281235,242.408173 209.727524,227.365906 227.379517,205.109390 
	C238.244736,191.409958 245.387466,175.849915 249.973129,158.191803 
	C253.275192,145.303528 253.396912,132.181778 252.944855,118.155357 
	C252.625214,115.395950 252.631104,112.550034 251.924973,109.893349 
	C249.792999,101.872063 247.384445,93.924286 245.008408,85.189026 
	C241.419342,74.504410 236.614288,64.482315 228.930222,55.271950 
z"/>
<path fill="#132134" opacity="1.000000" stroke="none" 
	d="
M5.107682,134.003784 
	C0.565880,63.340519 61.478756,1.568148 132.463501,5.404035 
	C132.319077,6.587107 131.906097,7.539156 131.224274,8.223252 
	C116.296066,23.200920 101.373940,38.185219 86.328148,53.044205 
	C84.879387,54.474972 82.626823,55.091827 80.443970,55.946037 
	C66.666969,47.720226 54.392399,50.950089 46.717281,64.720299 
	C40.702854,75.511002 39.821056,87.033089 41.862236,99.024223 
	C40.541714,99.697350 39.417381,100.149010 38.625237,100.935326 
	C28.967571,110.521919 19.367285,120.166275 9.728111,129.771561 
	C8.249960,131.244507 6.650850,132.596085 5.107682,134.003784 
z"/>
<path fill="#1C354F" opacity="1.000000" stroke="none" 
	d="
M159.007996,249.854568 
	C146.161194,253.066422 133.088989,253.418472 119.554405,252.569656 
	C121.211121,249.865097 123.323303,247.572617 125.302040,245.170242 
	C127.676094,242.287949 129.936401,239.311966 132.641800,236.495239 
	C136.254303,237.389801 139.783508,237.699249 140.933456,233.939758 
	C142.676834,228.240341 136.222473,229.353027 134.193680,226.955521 
	C135.883041,221.526352 138.744125,226.756973 141.408112,226.028580 
	C142.436218,226.116913 143.022949,226.176300 143.542206,226.637695 
	C142.600449,230.998444 143.244080,234.817093 147.278564,236.159836 
	C149.462753,236.886749 153.699875,236.247955 154.663330,234.732635 
	C156.168884,232.364716 156.643021,228.391312 155.711777,225.746872 
	C155.055832,223.884171 151.343475,223.097794 149.072800,221.506577 
	C150.047531,220.007477 150.824799,218.712341 151.860489,217.675293 
	C183.697159,185.795761 215.544052,153.926376 247.467178,122.133545 
	C248.888367,120.718178 251.038803,120.035080 252.849579,119.010910 
	C253.396912,132.181778 253.275192,145.303528 249.565704,158.618805 
	C247.298477,160.337616 245.195694,161.385269 243.615448,162.957947 
	C221.125977,185.339813 198.719925,207.805496 176.242584,230.199600 
	C174.758713,231.677948 172.861298,232.741226 171.090240,233.541473 
	C171.024231,229.448120 171.024231,225.810852 171.024231,222.173569 
	C170.404053,222.159256 169.783890,222.144928 169.163712,222.130600 
	C169.004227,225.264450 168.844757,228.398300 168.637741,232.466217 
	C165.564484,228.181976 163.210419,224.900314 160.856339,221.618652 
	C160.567444,221.858368 160.278534,222.098099 159.989624,222.337814 
	C159.989624,227.136841 159.989624,231.935867 159.989624,236.734894 
	C161.154968,236.125824 161.474091,235.416794 161.815323,234.718567 
	C163.605499,231.055405 164.728149,230.984070 167.041718,234.427170 
	C167.496902,235.104614 167.800446,235.883987 168.088501,236.976349 
	C166.481491,239.244781 164.878647,241.095032 163.460098,243.077148 
	C161.888245,245.273438 160.484787,247.590256 159.007996,249.854568 
z"/>
<path fill="#1B324B" opacity="1.000000" stroke="none" 
	d="
M252.897217,118.583130 
	C251.038803,120.035080 248.888367,120.718178 247.467178,122.133545 
	C215.544052,153.926376 183.697159,185.795761 151.860489,217.675293 
	C150.824799,218.712341 150.047531,220.007477 148.754120,221.618347 
	C146.775513,223.448151 145.192596,224.841919 143.609680,226.235687 
	C143.022949,226.176300 142.436218,226.116913 141.323853,225.676559 
	C138.928894,221.516541 135.807587,220.982391 132.519424,222.795242 
	C129.559250,224.427246 129.920441,227.014130 131.465729,229.543884 
	C130.080688,229.769989 129.151443,229.886719 128.166534,229.561203 
	C128.050797,226.743408 127.990707,224.367859 128.012817,221.657806 
	C133.915466,215.196671 139.835617,209.159882 145.491104,202.884598 
	C147.037842,201.168335 147.790375,198.736313 149.203049,196.447708 
	C160.281982,193.075256 169.681137,187.456573 178.315094,179.827911 
	C183.207947,173.151276 187.827560,166.660461 192.638367,159.877380 
	C194.475082,154.384491 196.120590,149.183884 197.879791,143.578400 
	C198.352692,138.448227 198.711929,133.722931 199.427612,128.978378 
	C201.649399,127.679398 203.748932,126.639420 205.343185,125.082161 
	C218.642670,112.091301 231.849152,99.005211 245.083710,85.947861 
	C247.384445,93.924286 249.792999,101.872063 251.924973,109.893349 
	C252.631104,112.550034 252.625214,115.395950 252.897217,118.583130 
z"/>
<path fill="#152539" opacity="1.000000" stroke="none" 
	d="
M80.747398,56.086517 
	C82.626823,55.091827 84.879387,54.474972 86.328148,53.044205 
	C101.373940,38.185219 116.296066,23.200920 131.224274,8.223252 
	C131.906097,7.539156 132.319077,6.587107 132.931244,5.435571 
	C147.797195,4.702822 161.817627,8.065063 175.611511,14.282923 
	C174.461090,16.808506 173.309143,19.076511 171.609818,20.806988 
	C162.161911,30.428127 152.548492,39.886501 143.065414,49.473484 
	C140.153748,52.417053 137.474411,55.590435 134.374100,58.489037 
	C132.657471,56.506210 131.255417,54.692928 129.327011,52.198891 
	C124.295372,58.295197 120.197998,63.259548 115.712051,68.245041 
	C107.852470,70.934105 100.381462,73.602028 92.608612,76.066811 
	C88.453659,69.271278 84.600525,62.678898 80.747398,56.086517 
z"/>
<path fill="#182D44" opacity="1.000000" stroke="none" 
	d="
M71.969772,239.084061 
	C64.111816,234.018829 55.991936,229.307465 48.493233,223.756897 
	C43.925945,220.376175 40.316078,215.702011 36.349991,211.098557 
	C39.486526,207.354889 42.507896,204.081116 45.619724,200.895691 
	C54.730000,191.570007 63.876312,182.279510 73.218811,172.995178 
	C73.429108,173.015121 73.849449,173.057693 73.958267,173.379730 
	C78.274391,177.515930 82.481705,181.330109 86.904518,185.413666 
	C95.080765,189.476486 103.041512,193.269913 110.931625,197.395370 
	C109.626282,199.266266 108.519012,200.931702 107.136559,202.323898 
	C96.659317,212.875137 86.097755,223.342819 75.648499,233.921509 
	C74.182564,235.405609 73.184441,237.351776 71.969772,239.084061 
z"/>
<path fill="#17293E" opacity="1.000000" stroke="none" 
	d="
M73.008507,172.975235 
	C63.876312,182.279510 54.730000,191.570007 45.619724,200.895691 
	C42.507896,204.081116 39.486526,207.354889 36.172379,210.813660 
	C30.720228,203.909622 25.225441,196.970825 20.432604,189.577011 
	C17.696228,185.355682 16.103823,180.392792 14.302382,175.322357 
	C16.155277,173.670944 17.843161,172.602982 19.226761,171.228653 
	C30.879555,159.654068 42.454674,148.001236 54.119965,136.439346 
	C55.488758,135.082703 57.261856,134.133972 58.918556,133.399506 
	C59.248730,135.896774 59.507874,137.990692 59.747208,140.504868 
	C60.270054,143.613312 60.812706,146.301498 61.365616,149.353973 
	C62.919968,153.478088 64.464066,157.237900 66.060707,161.347031 
	C68.411674,165.455978 70.710091,169.215607 73.008507,172.975235 
z"/>
<path fill="#152539" opacity="1.000000" stroke="none" 
	d="
M58.847527,132.996155 
	C57.261856,134.133972 55.488758,135.082703 54.119965,136.439346 
	C42.454674,148.001236 30.879555,159.654068 19.226761,171.228653 
	C17.843161,172.602982 16.155277,173.670944 14.263710,174.948151 
	C11.287204,166.071777 8.375194,157.197235 6.146977,148.154190 
	C5.100807,143.908386 5.371676,139.338074 5.076689,134.459290 
	C6.650850,132.596085 8.249960,131.244507 9.728111,129.771561 
	C19.367285,120.166275 28.967571,110.521919 38.625237,100.935326 
	C39.417381,100.149010 40.541714,99.697350 42.052101,99.314056 
	C43.476017,101.852798 44.186813,104.252617 45.275608,106.466530 
	C48.462288,112.946213 52.376148,118.776283 59.851429,121.487221 
	C59.686619,124.934731 59.474022,127.964096 59.172829,131.323059 
	C59.005329,132.100510 58.926426,132.548325 58.847527,132.996155 
z"/>
<path fill="#17293E" opacity="1.000000" stroke="none" 
	d="
M134.688675,58.658577 
	C137.474411,55.590435 140.153748,52.417053 143.065414,49.473484 
	C152.548492,39.886501 162.161911,30.428127 171.609818,20.806988 
	C173.309143,19.076511 174.461090,16.808506 175.934296,14.454092 
	C186.898560,18.163443 196.851517,23.831347 205.646057,31.887447 
	C201.377380,36.775036 197.085876,41.060287 193.038010,45.564491 
	C191.701569,47.051601 190.993942,49.103809 189.621582,50.967819 
	C178.251572,53.095123 171.997375,60.347908 168.084381,70.233337 
	C167.243027,72.358826 166.115784,74.371155 164.771576,76.255844 
	C157.289490,73.697044 150.156067,71.317993 143.013916,68.968040 
	C143.005157,68.997139 143.056747,68.964996 142.992645,68.706223 
	C142.590637,68.369614 142.252762,68.291794 141.652832,67.996811 
	C139.156754,64.739296 136.922714,61.698936 134.688675,58.658577 
z"/>
<path fill="#1B324B" opacity="1.000000" stroke="none" 
	d="
M72.199821,239.335129 
	C73.184441,237.351776 74.182564,235.405609 75.648499,233.921509 
	C86.097755,223.342819 96.659317,212.875137 107.136559,202.323898 
	C108.519012,200.931702 109.626282,199.266266 111.315247,197.521332 
	C124.198402,199.787720 136.576630,199.501862 148.907364,196.632751 
	C147.790375,198.736313 147.037842,201.168335 145.491104,202.884598 
	C139.835617,209.159882 133.915466,215.196671 127.767334,221.768021 
	C124.680038,222.447845 123.184937,224.089340 123.796661,226.679276 
	C124.541916,229.834503 125.919518,232.840363 127.023613,235.910812 
	C127.254349,235.870331 127.485092,235.829834 127.715828,235.789337 
	C127.884621,233.860703 128.053406,231.932083 128.222198,230.003448 
	C129.151443,229.886719 130.080688,229.769989 131.757889,229.654572 
	C133.729141,229.933578 134.952438,230.211258 136.081543,230.884003 
	C135.138275,232.271591 134.289169,233.264130 133.187393,234.136566 
	C132.166107,233.288147 131.397491,232.559814 130.628876,231.831467 
	C130.296951,232.125381 129.965027,232.419312 129.633102,232.713226 
	C130.504059,233.934341 131.375000,235.155441 132.245956,236.376556 
	C129.936401,239.311966 127.676094,242.287949 125.302040,245.170242 
	C123.323303,247.572617 121.211121,249.865097 119.088593,252.528931 
	C102.528870,251.803192 86.990799,247.410599 72.199821,239.335129 
M101.951286,228.401382 
	C100.949936,231.114319 99.948578,233.827240 98.947227,236.540176 
	C104.555862,231.929657 104.555862,231.929657 112.807838,237.860748 
	C110.344986,231.585892 108.396172,226.620697 106.447357,221.655502 
	C105.916496,221.673340 105.385628,221.691193 104.854767,221.709045 
	C103.976273,223.699631 103.097778,225.690201 101.951286,228.401382 
M87.349808,235.172379 
	C90.210037,235.447144 93.085228,235.983658 95.920494,235.821609 
	C96.675461,235.778442 98.112175,232.761841 97.868111,232.526031 
	C96.101410,230.819092 93.948280,229.520966 91.992264,227.997391 
	C91.007576,227.230347 90.179062,226.262833 89.279922,225.385971 
	C90.732773,225.021973 92.236504,224.250854 93.622223,224.424042 
	C94.711243,224.560150 95.654526,225.862350 96.842163,226.786285 
	C97.496239,223.126099 95.281250,221.786530 92.649513,222.148544 
	C90.733688,222.412064 89.032837,224.238358 87.236145,225.367935 
	C88.479988,226.869888 89.606110,228.498093 91.020683,229.816895 
	C91.663177,230.415909 93.008926,230.201859 93.796013,230.720398 
	C94.640686,231.276886 95.203880,232.260620 95.889915,233.057938 
	C94.884224,233.710052 93.736336,235.049652 92.901237,234.876938 
	C90.915703,234.466278 89.078178,233.339951 86.935341,232.394455 
	C87.017349,233.155197 87.084587,233.779007 87.349808,235.172379 
M122.406410,232.053284 
	C119.404221,233.041107 119.684158,230.531387 119.004448,228.937195 
	C118.010323,226.605560 118.269333,223.130753 114.672272,223.194687 
	C114.672272,227.762329 114.672272,232.101166 114.672272,236.440002 
	C114.976959,236.424103 115.281647,236.408218 115.586342,236.392319 
	C115.769218,234.256653 115.952103,232.120987 116.178650,229.475357 
	C117.754265,232.473816 119.020012,234.882568 120.285759,237.291336 
	C120.684692,237.211731 121.083618,237.132126 121.482544,237.052521 
	C121.904854,235.551697 122.327164,234.050858 122.406410,232.053284 
z"/>
<path fill="#1C3751" opacity="1.000000" stroke="none" 
	d="
M159.363113,249.747681 
	C160.484787,247.590256 161.888245,245.273438 163.460098,243.077148 
	C164.878647,241.095032 166.481491,239.244781 168.447449,237.090378 
	C169.646637,235.895447 170.401443,234.946503 171.156250,233.997574 
	C172.861298,232.741226 174.758713,231.677948 176.242584,230.199600 
	C198.719925,207.805496 221.125977,185.339813 243.615448,162.957947 
	C245.195694,161.385269 247.298477,160.337616 249.506424,159.026978 
	C245.387466,175.849915 238.244736,191.409958 227.379517,205.109390 
	C209.727524,227.365906 187.281235,242.408173 159.363113,249.747681 
z"/>
<path fill="#192F47" opacity="1.000000" stroke="none" 
	d="
M245.046051,85.568436 
	C231.849152,99.005211 218.642670,112.091301 205.343185,125.082161 
	C203.748932,126.639420 201.649399,127.679398 199.350647,128.635101 
	C198.602097,127.224243 198.286942,126.137413 197.979523,124.651306 
	C197.993271,123.190582 197.999298,122.129143 198.365967,121.033554 
	C204.878677,118.773842 208.629822,113.974319 211.586227,108.539337 
	C218.534927,95.765045 218.361069,82.510040 214.142288,68.981873 
	C219.354004,64.592308 224.215607,60.270512 229.077225,55.948715 
	C236.614288,64.482315 241.419342,74.504410 245.046051,85.568436 
z"/>
<path fill="#182C42" opacity="1.000000" stroke="none" 
	d="
M229.003723,55.610332 
	C224.215607,60.270512 219.354004,64.592308 213.930817,68.726982 
	C208.627106,58.621437 201.806015,51.457001 189.998779,50.897636 
	C190.993942,49.103809 191.701569,47.051601 193.038010,45.564491 
	C197.085876,41.060287 201.377380,36.775036 205.822678,32.175365 
	C212.684219,38.232815 219.338943,44.476349 225.873383,50.843330 
	C227.133926,52.071583 227.923431,53.783276 229.003723,55.610332 
z"/>
<path fill="#7D4B27" opacity="1.000000" stroke="none" 
	d="
M59.803642,121.069069 
	C52.376148,118.776283 48.462288,112.946213 45.275608,106.466530 
	C44.186813,104.252617 43.476017,101.852798 42.402649,99.248093 
	C39.821056,87.033089 40.702854,75.511002 46.717281,64.720299 
	C54.392399,50.950089 66.666969,47.720226 80.443970,55.946037 
	C84.600525,62.678898 88.453659,69.271278 92.435806,76.315628 
	C90.668983,78.095497 88.773140,79.423401 86.553970,80.867668 
	C81.117638,86.316658 76.004639,91.649284 70.615601,97.167084 
	C68.158684,101.498993 65.977821,105.645729 63.553921,110.070374 
	C62.452255,113.813889 61.593624,117.279510 60.501656,120.824677 
	C60.268314,120.904221 59.803642,121.069069 59.803642,121.069069 
z"/>
<path fill="#7BBAE0" opacity="1.000000" stroke="none" 
	d="
M171.090240,233.541473 
	C170.401443,234.946503 169.646637,235.895447 168.532883,236.730377 
	C167.800446,235.883987 167.496902,235.104614 167.041718,234.427170 
	C164.728149,230.984070 163.605499,231.055405 161.815323,234.718567 
	C161.474091,235.416794 161.154968,236.125824 159.989624,236.734894 
	C159.989624,231.935867 159.989624,227.136841 159.989624,222.337814 
	C160.278534,222.098099 160.567444,221.858368 160.856339,221.618652 
	C163.210419,224.900314 165.564484,228.181976 168.637741,232.466217 
	C168.844757,228.398300 169.004227,225.264450 169.163712,222.130600 
	C169.783890,222.144928 170.404053,222.159256 171.024231,222.173569 
	C171.024231,225.810852 171.024231,229.448120 171.090240,233.541473 
z"/>
<path fill="#7CBBE1" opacity="1.000000" stroke="none" 
	d="
M136.175735,230.488953 
	C134.952438,230.211258 133.729141,229.933578 132.213684,229.545197 
	C129.920441,227.014130 129.559250,224.427246 132.519424,222.795242 
	C135.807587,220.982391 138.928894,221.516541 140.882477,225.647614 
	C138.744125,226.756973 135.883041,221.526352 134.193680,226.955521 
	C136.222473,229.353027 142.676834,228.240341 140.933456,233.939758 
	C139.783508,237.699249 136.254303,237.389801 132.641800,236.495239 
	C131.375000,235.155441 130.504059,233.934341 129.633102,232.713226 
	C129.965027,232.419312 130.296951,232.125381 130.628876,231.831467 
	C131.397491,232.559814 132.166107,233.288147 133.511475,234.376801 
	C135.729309,234.201645 137.370407,233.666153 139.011505,233.130676 
	C138.066238,232.250122 137.120987,231.369537 136.175735,230.488953 
z"/>
<path fill="#80C1E8" opacity="1.000000" stroke="none" 
	d="
M143.542221,226.637695 
	C145.192596,224.841919 146.775513,223.448151 148.677094,221.942612 
	C151.343475,223.097794 155.055832,223.884171 155.711777,225.746872 
	C156.643021,228.391312 156.168884,232.364716 154.663330,234.732635 
	C153.699875,236.247955 149.462753,236.886749 147.278564,236.159836 
	C143.244080,234.817093 142.600449,230.998444 143.542221,226.637695 
M148.083176,224.218567 
	C147.139343,225.674850 145.468414,227.113907 145.433395,228.591736 
	C145.388321,230.492950 146.200729,232.884705 147.514771,234.184860 
	C148.410873,235.071472 151.576981,235.175125 152.347076,234.346069 
	C153.719727,232.868301 154.721588,230.398254 154.657959,228.381668 
	C154.555084,225.121048 152.303787,223.473526 148.083176,224.218567 
z"/>
<path fill="#9C6639" opacity="1.000000" stroke="none" 
	d="
M149.203049,196.447708 
	C136.576630,199.501862 124.198402,199.787720 111.385880,197.189331 
	C103.041512,193.269913 95.080765,189.476486 87.337936,185.309784 
	C90.844414,184.624130 94.154671,184.452011 97.413544,183.947784 
	C99.431206,183.635620 101.370789,182.818802 103.652008,182.417603 
	C120.264236,195.129028 145.378433,193.888138 159.874512,177.470734 
	C162.055237,178.215179 163.918304,178.761810 165.818329,178.968307 
	C169.882690,179.410049 173.966187,179.675842 178.041840,180.013702 
	C169.681137,187.456573 160.281982,193.075256 149.203049,196.447708 
z"/>
<path fill="#B57D4B" opacity="1.000000" stroke="none" 
	d="
M197.971802,125.050591 
	C198.286942,126.137413 198.602097,127.224243 198.994202,128.654343 
	C198.711929,133.722931 198.352692,138.448227 197.427490,143.581589 
	C188.071259,143.993088 179.279251,143.895996 170.491562,144.048660 
	C166.890289,144.111191 163.298370,144.713089 159.451385,144.874878 
	C153.472214,140.747452 147.743866,136.814774 142.142426,132.564804 
	C144.232697,131.484268 146.196045,130.721039 148.428955,130.158173 
	C155.651138,137.970718 163.392471,136.137054 167.597595,125.993454 
	C173.817932,125.997597 179.581497,126.118187 185.337494,125.961372 
	C189.554077,125.846489 193.760727,125.367363 197.971802,125.050591 
z"/>
<path fill="#AE7646" opacity="1.000000" stroke="none" 
	d="
M159.702194,145.069641 
	C163.298370,144.713089 166.890289,144.111191 170.491562,144.048660 
	C179.279251,143.895996 188.071259,143.993088 197.313812,143.986450 
	C196.120590,149.183884 194.475082,154.384491 192.134018,159.837814 
	C182.675781,160.065094 173.913086,160.039673 165.068756,159.618088 
	C163.225464,154.504501 161.463821,149.787064 159.702194,145.069641 
z"/>
<path fill="#A56E40" opacity="1.000000" stroke="none" 
	d="
M165.150406,160.014252 
	C173.913086,160.039673 182.675781,160.065094 191.942810,160.130066 
	C187.827560,166.660461 183.207947,173.151276 178.315094,179.827911 
	C173.966187,179.675842 169.882690,179.410049 165.818329,178.968307 
	C163.918304,178.761810 162.055237,178.215179 159.979584,177.172806 
	C161.572617,171.020020 163.361511,165.517136 165.150406,160.014252 
z"/>
<path fill="#1C354F" opacity="1.000000" stroke="none" 
	d="
M128.166534,229.561203 
	C128.053406,231.932083 127.884621,233.860703 127.715828,235.789337 
	C127.485092,235.829834 127.254349,235.870331 127.023613,235.910812 
	C125.919518,232.840363 124.541916,229.834503 123.796661,226.679276 
	C123.184937,224.089340 124.680038,222.447845 127.685135,222.102539 
	C127.990707,224.367859 128.050797,226.743408 128.166534,229.561203 
z"/>
<path fill="#F3E2CD" opacity="1.000000" stroke="none" 
	d="
M134.374100,58.489037 
	C136.922714,61.698936 139.156754,64.739296 141.745987,68.247620 
	C142.419708,68.798729 142.738220,68.881866 143.056747,68.964996 
	C143.056747,68.964996 143.005157,68.997139 142.987823,69.337204 
	C144.842789,73.820526 146.715073,77.963791 149.021271,83.067245 
	C135.049393,83.067245 122.416542,83.067245 109.742226,82.670807 
	C111.834053,77.590881 113.967331,72.907394 116.100616,68.223900 
	C120.197998,63.259548 124.295372,58.295197 129.327011,52.198891 
	C131.255417,54.692928 132.657471,56.506210 134.374100,58.489037 
z"/>
<path fill="#CE9661" opacity="1.000000" stroke="none" 
	d="
M115.712051,68.245041 
	C113.967331,72.907394 111.834053,77.590881 109.292358,82.655022 
	C103.164322,83.022919 97.436722,83.173584 91.730080,82.894905 
	C90.081528,82.814400 88.493225,81.500008 86.877304,80.751305 
	C88.773140,79.423401 90.668983,78.095497 92.737633,76.518776 
	C100.381462,73.602028 107.852470,70.934105 115.712051,68.245041 
z"/>
<path fill="#A76F41" opacity="1.000000" stroke="none" 
	d="
M73.218811,172.995178 
	C70.710091,169.215607 68.411674,165.455978 66.528763,161.346771 
	C75.575882,161.001785 84.207481,161.006363 92.902260,161.417450 
	C93.681633,165.119080 94.397827,168.414185 94.790649,171.988831 
	C87.594666,172.531479 80.722054,172.794586 73.849449,173.057693 
	C73.849449,173.057693 73.429108,173.015121 73.218811,172.995178 
z"/>
<path fill="#A16B3D" opacity="1.000000" stroke="none" 
	d="
M73.958267,173.379730 
	C80.722054,172.794586 87.594666,172.531479 95.027992,172.242035 
	C98.174286,175.553314 100.759850,178.890900 103.345413,182.228500 
	C101.370789,182.818802 99.431206,183.635620 97.413544,183.947784 
	C94.154671,184.452011 90.844414,184.624130 87.122437,185.040390 
	C82.481705,181.330109 78.274391,177.515930 73.958267,173.379730 
z"/>
<path fill="#B57D4B" opacity="1.000000" stroke="none" 
	d="
M58.918552,133.399506 
	C58.926426,132.548325 59.005329,132.100510 59.623802,131.323639 
	C70.752800,130.662582 81.342224,130.330566 92.113083,130.297180 
	C97.932976,136.756149 102.619247,136.576187 110.141029,129.999969 
	C112.797676,130.783768 115.067551,131.492874 117.055290,132.436279 
	C111.844101,135.428802 106.915062,138.187012 101.639404,140.722626 
	C87.450867,140.361542 73.608940,140.223068 59.767017,140.084610 
	C59.507874,137.990692 59.248730,135.896774 58.918552,133.399506 
z"/>
<path fill="#AD7545" opacity="1.000000" stroke="none" 
	d="
M92.839088,161.010925 
	C84.207481,161.006363 75.575882,161.001785 66.476212,160.997467 
	C64.464066,157.237900 62.919968,153.478088 61.809406,149.355225 
	C71.334740,148.994949 80.427559,148.927155 89.517494,149.058411 
	C91.395744,149.085526 93.263298,149.853439 95.079071,150.646210 
	C94.294609,154.345291 93.566849,157.678116 92.839088,161.010925 
z"/>
<path fill="#B17A49" opacity="1.000000" stroke="none" 
	d="
M95.135773,150.279922 
	C93.263298,149.853439 91.395744,149.085526 89.517494,149.058411 
	C80.427559,148.927155 71.334740,148.994949 61.799149,148.990936 
	C60.812706,146.301498 60.270054,143.613312 59.747208,140.504868 
	C73.608940,140.223068 87.450867,140.361542 101.481689,141.018677 
	C99.492317,144.451553 97.314041,147.365738 95.135773,150.279922 
z"/>
<path fill="#B9814F" opacity="1.000000" stroke="none" 
	d="
M91.931656,129.998550 
	C81.342224,130.330566 70.752800,130.662582 59.712399,130.994019 
	C59.474022,127.964096 59.686619,124.934731 59.851429,121.487221 
	C59.803642,121.069069 60.268314,120.904221 60.860481,121.096130 
	C71.352783,121.529167 81.252907,121.770294 91.150803,122.426514 
	C91.409592,125.227257 91.670624,127.612907 91.931656,129.998550 
z"/>
<path fill="#7D4B28" opacity="1.000000" stroke="none" 
	d="
M189.621582,50.967819 
	C201.806015,51.457001 208.627106,58.621437 213.580719,68.794754 
	C218.361069,82.510040 218.534927,95.765045 211.586227,108.539337 
	C208.629822,113.974319 204.878677,118.773842 198.105408,120.761322 
	C196.482407,117.311661 195.480621,114.100067 194.336700,110.535522 
	C191.852386,105.778564 189.510193,101.374573 187.064758,96.640091 
	C181.392166,87.804497 173.732224,81.596901 165.120239,76.435608 
	C166.115784,74.371155 167.243027,72.358826 168.084381,70.233337 
	C171.997375,60.347908 178.251572,53.095123 189.621582,50.967819 
z"/>
<path fill="#C9915C" opacity="1.000000" stroke="none" 
	d="
M164.771561,76.255844 
	C173.732224,81.596901 181.392166,87.804497 186.580933,96.647293 
	C147.764099,96.983963 109.327873,96.982941 70.891647,96.981918 
	C76.004639,91.649284 81.117638,86.316658 86.553970,80.867668 
	C88.493225,81.500008 90.081528,82.814400 91.730080,82.894905 
	C97.436722,83.173584 103.164322,83.022919 109.333817,83.051453 
	C122.416542,83.067245 135.049393,83.067245 149.021271,83.067245 
	C146.715073,77.963791 144.842789,73.820526 142.996582,69.308105 
	C150.156067,71.317993 157.289490,73.697044 164.771561,76.255844 
z"/>
<path fill="#C9915C" opacity="1.000000" stroke="none" 
	d="
M142.992645,68.706223 
	C142.738220,68.881866 142.419708,68.798729 142.008026,68.464783 
	C142.252762,68.291794 142.590637,68.369614 142.992645,68.706223 
z"/>
<path fill="#7CBCE2" opacity="1.000000" stroke="none" 
	d="
M102.085281,228.041077 
	C103.097778,225.690201 103.976273,223.699631 104.854767,221.709045 
	C105.385628,221.691193 105.916496,221.673340 106.447357,221.655502 
	C108.396172,226.620697 110.344986,231.585892 112.807838,237.860748 
	C104.555862,231.929657 104.555862,231.929657 98.947227,236.540176 
	C99.948578,233.827240 100.949936,231.114319 102.085281,228.041077 
z"/>
<path fill="#7FC0E6" opacity="1.000000" stroke="none" 
	d="
M87.250824,234.787598 
	C87.084587,233.779007 87.017349,233.155197 86.935341,232.394455 
	C89.078178,233.339951 90.915703,234.466278 92.901237,234.876938 
	C93.736336,235.049652 94.884224,233.710052 95.889908,233.057922 
	C95.203880,232.260620 94.640686,231.276886 93.796013,230.720398 
	C93.008926,230.201859 91.663177,230.415909 91.020683,229.816895 
	C89.606110,228.498093 88.479988,226.869888 87.236145,225.367935 
	C89.032837,224.238358 90.733688,222.412064 92.649513,222.148544 
	C95.281250,221.786530 97.496239,223.126099 96.842163,226.786285 
	C95.654526,225.862350 94.711243,224.560150 93.622223,224.424042 
	C92.236504,224.250854 90.732773,225.021973 89.279922,225.385971 
	C90.179062,226.262833 91.007576,227.230347 91.992264,227.997391 
	C93.948280,229.520966 96.101410,230.819092 97.868111,232.526031 
	C98.112175,232.761841 96.675461,235.778442 95.920494,235.821609 
	C93.085228,235.983658 90.210037,235.447144 87.250824,234.787598 
z"/>
<path fill="#6EA7CB" opacity="1.000000" stroke="none" 
	d="
M122.577942,232.301651 
	C122.327164,234.050858 121.904854,235.551697 121.482544,237.052521 
	C121.083618,237.132126 120.684692,237.211731 120.285759,237.291336 
	C119.020012,234.882568 117.754265,232.473816 116.178650,229.475357 
	C115.952103,232.120987 115.769218,234.256653 115.586342,236.392319 
	C115.281647,236.408218 114.976959,236.424103 114.672272,236.440002 
	C114.672272,232.101166 114.672272,227.762329 114.672272,223.194687 
	C118.269333,223.130753 118.010323,226.605560 119.004448,228.937195 
	C119.684158,230.531387 119.404221,233.041107 122.577942,232.301651 
z"/>
<path fill="#1C354F" opacity="1.000000" stroke="none" 
	d="
M136.081543,230.884003 
	C137.120987,231.369537 138.066238,232.250122 139.011505,233.130676 
	C137.370407,233.666153 135.729309,234.201645 133.764145,234.496902 
	C134.289169,233.264130 135.138275,232.271591 136.081543,230.884003 
z"/>
<path fill="#BD8451" opacity="1.000000" stroke="none" 
	d="
M194.478821,110.888481 
	C195.480621,114.100067 196.482407,117.311661 197.744781,120.795471 
	C197.999298,122.129143 197.993271,123.190582 197.979523,124.651306 
	C193.760727,125.367363 189.554077,125.846489 185.337494,125.961372 
	C179.581497,126.118187 173.817932,125.997597 167.543732,125.607742 
	C166.065079,119.265884 163.109360,115.827591 158.340530,115.111565 
	C153.449585,114.377205 149.879562,116.579079 146.675385,122.008728 
	C134.412247,122.008087 122.627419,122.009995 110.615700,121.770851 
	C103.615509,112.390007 95.875984,112.583786 91.153038,122.011421 
	C81.252907,121.770294 71.352783,121.529167 61.093822,121.016579 
	C61.593624,117.279510 62.452255,113.813889 63.904808,110.334595 
	C65.789406,110.546349 67.080101,110.968712 68.370773,110.968666 
	C110.406792,110.967018 152.442810,110.924721 194.478821,110.888481 
z"/>
<path fill="#C38A56" opacity="1.000000" stroke="none" 
	d="
M194.336700,110.535522 
	C152.442810,110.924721 110.406792,110.967018 68.370773,110.968666 
	C67.080101,110.968712 65.789406,110.546349 64.147842,110.056694 
	C65.977821,105.645729 68.158684,101.498993 70.615601,97.167084 
	C109.327873,96.982941 147.764099,96.983963 186.684158,96.977791 
	C189.510193,101.374573 191.852386,105.778564 194.336700,110.535522 
z"/>
<path fill="#213D57" opacity="1.000000" stroke="none" 
	d="
M148.470703,224.113953 
	C152.303787,223.473526 154.555084,225.121048 154.657959,228.381668 
	C154.721588,230.398254 153.719727,232.868301 152.347076,234.346069 
	C151.576981,235.175125 148.410873,235.071472 147.514771,234.184860 
	C146.200729,232.884705 145.388321,230.492950 145.433395,228.591736 
	C145.468414,227.113907 147.139343,225.674850 148.470703,224.113953 
z"/>
<path fill="#EFD1AD" opacity="1.000000" stroke="none" 
	d="
M95.079071,150.646210 
	C97.314041,147.365738 99.492317,144.451553 101.828300,141.241302 
	C106.915062,138.187012 111.844101,135.428802 117.467392,132.450958 
	C126.112923,132.448273 134.064209,132.665192 142.015503,132.882111 
	C147.743866,136.814774 153.472214,140.747452 159.451385,144.874878 
	C161.463821,149.787064 163.225464,154.504501 165.068756,159.618088 
	C163.361511,165.517136 161.572617,171.020020 159.678680,176.820831 
	C145.378433,193.888138 120.264236,195.129028 103.652008,182.417603 
	C100.759850,178.890900 98.174286,175.553314 95.351372,171.962494 
	C94.397827,168.414185 93.681633,165.119080 92.902260,161.417450 
	C93.566849,157.678116 94.294609,154.345291 95.079071,150.646210 
M118.179314,143.587769 
	C111.954422,149.826553 113.007896,156.373352 120.961494,160.172256 
	C126.729439,162.927200 132.802979,163.116913 138.020599,159.484970 
	C140.664993,157.644257 142.987778,154.132919 143.674347,150.987946 
	C144.572723,146.872620 141.303741,143.961731 137.696014,142.185394 
	C131.261658,139.017319 124.901917,139.348602 118.179314,143.587769 
M132.874878,185.563309 
	C139.867523,184.482010 145.781830,181.312943 150.381073,175.979874 
	C152.001862,174.100494 156.042023,172.183609 152.948288,169.163177 
	C149.495300,165.792007 147.815735,170.250854 146.001389,172.081207 
	C138.454300,179.694901 129.151871,182.185776 120.201469,177.771820 
	C116.315544,175.855438 113.323486,172.191238 109.700249,169.640823 
	C108.507324,168.801147 106.606659,168.966949 105.029625,168.672974 
	C105.076736,170.263504 104.476944,172.375168 105.272514,173.362747 
	C112.105118,181.844376 120.715149,186.784119 132.874878,185.563309 
z"/>
<path fill="#B9814F" opacity="1.000000" stroke="none" 
	d="
M142.142426,132.564804 
	C134.064209,132.665192 126.112923,132.448273 117.749527,132.216660 
	C115.067551,131.492874 112.797676,130.783768 110.274490,129.626328 
	C110.294991,126.789284 110.568787,124.400597 110.842590,122.011902 
	C122.627419,122.009995 134.412247,122.008087 146.673126,122.424049 
	C147.485916,125.213882 147.822647,127.585846 148.159393,129.957794 
	C146.196045,130.721039 144.232697,131.484268 142.142426,132.564804 
z"/>
<path fill="#181715" opacity="1.000000" stroke="none" 
	d="
M148.428955,130.158188 
	C147.822647,127.585846 147.485916,125.213882 147.151428,122.426605 
	C149.879562,116.579079 153.449585,114.377205 158.340530,115.111565 
	C163.109360,115.827591 166.065079,119.265884 167.083694,125.605270 
	C163.392471,136.137054 155.651138,137.970718 148.428955,130.158188 
M152.665527,119.219833 
	C153.071014,120.737808 153.348648,122.316978 154.015350,123.709938 
	C154.119263,123.927055 156.316193,123.614388 156.965012,122.966019 
	C157.614014,122.317467 157.928589,120.120468 157.711884,120.016602 
	C156.318939,119.348984 154.739777,119.069916 152.665527,119.219833 
z"/>
<path fill="#181716" opacity="1.000000" stroke="none" 
	d="
M110.615700,121.770851 
	C110.568787,124.400597 110.294991,126.789284 109.887726,129.551636 
	C102.619247,136.576187 97.932976,136.756149 92.113083,130.297180 
	C91.670624,127.612907 91.409592,125.227257 91.150803,122.426514 
	C95.875984,112.583786 103.615509,112.390007 110.615700,121.770851 
M101.976089,121.379486 
	C101.722122,118.676224 100.270691,117.206573 97.736229,118.517097 
	C96.866508,118.966820 96.150200,121.659851 96.679092,122.500320 
	C98.224159,124.955559 100.205956,124.365593 101.976089,121.379486 
z"/>
<path fill="#282726" opacity="1.000000" stroke="none" 
	d="
M118.468079,143.347702 
	C124.901917,139.348602 131.261658,139.017319 137.696014,142.185394 
	C141.303741,143.961731 144.572723,146.872620 143.674347,150.987946 
	C142.987778,154.132919 140.664993,157.644257 138.020599,159.484970 
	C132.802979,163.116913 126.729439,162.927200 120.961494,160.172256 
	C113.007896,156.373352 111.954422,149.826553 118.468079,143.347702 
z"/>
<path fill="#754628" opacity="1.000000" stroke="none" 
	d="
M132.449463,185.637573 
	C120.715149,186.784119 112.105118,181.844376 105.272514,173.362747 
	C104.476944,172.375168 105.076736,170.263504 105.029625,168.672974 
	C106.606659,168.966949 108.507324,168.801147 109.700249,169.640823 
	C113.323486,172.191238 116.315544,175.855438 120.201469,177.771820 
	C129.151871,182.185776 138.454300,179.694901 146.001389,172.081207 
	C147.815735,170.250854 149.495300,165.792007 152.948288,169.163177 
	C156.042023,172.183609 152.001862,174.100494 150.381073,175.979874 
	C145.781830,181.312943 139.867523,184.482010 132.449463,185.637573 
z"/>
<path fill="#B6B6B6" opacity="1.000000" stroke="none" 
	d="
M152.943649,118.941528 
	C154.739777,119.069916 156.318939,119.348984 157.711884,120.016602 
	C157.928589,120.120468 157.614014,122.317467 156.965012,122.966019 
	C156.316193,123.614388 154.119263,123.927055 154.015350,123.709938 
	C153.348648,122.316978 153.071014,120.737808 152.943649,118.941528 
z"/>
<path fill="#B6B6B6" opacity="1.000000" stroke="none" 
	d="
M101.874329,121.759247 
	C100.205956,124.365593 98.224159,124.955559 96.679092,122.500320 
	C96.150200,121.659851 96.866508,118.966820 97.736229,118.517097 
	C100.270691,117.206573 101.722122,118.676224 101.874329,121.759247 
z"/>
</svg>