<svg xmlns="http://www.w3.org/2000/svg" viewBox="0 0 128 128" role="img" aria-label="Samson dog avatar">
  <defs>
    <linearGradient id="bg" x1="0" y1="0" x2="1" y2="1">
      <stop offset="0%" stop-color="#101a2a"/>
      <stop offset="100%" stop-color="#1f3d5a"/>
    </linearGradient>
    <linearGradient id="fur" x1="0" y1="0" x2="0" y2="1">
      <stop offset="0%" stop-color="#d39a63"/>
      <stop offset="100%" stop-color="#9a6235"/>
    </linearGradient>
  </defs>
  <circle cx="64" cy="64" r="62" fill="url(#bg)" />
  <ellipse cx="33" cy="43" rx="13" ry="18" fill="#7e4b27"/>
  <ellipse cx="95" cy="43" rx="13" ry="18" fill="#7e4b27"/>
  <ellipse cx="64" cy="66" rx="35" ry="33" fill="url(#fur)"/>
  <ellipse cx="64" cy="80" rx="18" ry="15" fill="#f1d4b0"/>
  <circle cx="50" cy="62" r="5" fill="#141414"/>
  <circle cx="78" cy="62" r="5" fill="#141414"/>
  <circle cx="49" cy="60" r="1.5" fill="#ffffff" opacity=".8"/>
  <circle cx="77" cy="60" r="1.5" fill="#ffffff" opacity=".8"/>
  <ellipse cx="64" cy="75" rx="7.5" ry="5.5" fill="#232323"/>
  <path d="M53 85c3 4 7 6 11 6s8-2 11-6" fill="none" stroke="#6f3f21" stroke-width="3" stroke-linecap="round"/>
  <path d="M64 26c4 4 8 9 10 15H54c2-6 6-11 10-15z" fill="#f5e4cf"/>
  <text x="64" y="118" text-anchor="middle" fill="#8fd6ff" font-size="10" font-family="Arial, sans-serif">SAMSON</text>
</svg>
